<?xml version="1.0" encoding="UTF-8"?>
<svg width="50px" height="50px" viewBox="0 0 50 50" version="1.1" xmlns="http://www.w3.org/2000/svg" xmlns:xlink="http://www.w3.org/1999/xlink">
    <g id="图标10" stroke="none" stroke-width="1" fill="none" fill-rule="evenodd">
        <path d="M9,12 L45,12 L45,13 L9,13 L9,12 Z M11,16 L12,16 L12,19.5 C12,19.7761424 11.7761424,20 11.5,20 C11.2238576,20 11,19.7761424 11,19.5 L11,16 Z M40.5,45 L43,45 L43,46 L40.5,46 C40.2238576,46 40,45.7761424 40,45.5 C40,45.2238576 40.2238576,45 40.5,45 Z M46,16 L47,16 L47,42 L46,42 L46,16 Z" id="Combined-Shape" fill="#666666" transform="translate(28.000000, 29.000000) scale(1, -1) translate(-28.000000, -29.000000) "></path>
        <g id="Group-2" transform="translate(0.000000, 1.000000)">
            <rect id="Rectangle-2-Copy" fill="#E0E0E0" x="1" y="1" width="34" height="12"></rect>
            <path d="M15.0038855,31 L15.0038855,13 L35,13 L35,2 C35,1.44771525 34.5522847,1 34,1 L2,1 C1.44771525,1 1,1.44771525 1,2 L1,30 C1,30.5522847 1.44771525,31 2,31 L15.0038855,31 Z M2,0 L34,0 C35.1045695,-2.02906125e-16 36,0.8954305 36,2 L36,14 L16.0038855,14 L16.0038855,32 L2,32 C0.8954305,32 1.3527075e-16,31.1045695 0,30 L0,2 C-1.3527075e-16,0.8954305 0.8954305,2.02906125e-16 2,0 Z" id="Rectangle-13" fill="#666666" fill-rule="nonzero"></path>
            <rect id="Rectangle-5" fill="#666666" x="1" y="13" width="14" height="1"></rect>
            <rect id="Rectangle-5-Copy" fill="#666666" x="1" y="22" width="14" height="1"></rect>
            <polygon id="Path" fill="#E7F5F9" points="21 22 21 23 34 23 34 22"></polygon>
            <polygon id="Path" fill="#E7F5F9" points="21 27 21 28 34 28 34 27"></polygon>
            <path d="M21,22 L21,23 L34,23 L34,22 L21,22 Z M20,21 L35,21 L35,24 L20,24 L20,21 Z" id="Rectangle-5-Copy-2" fill="#17A1CA" fill-rule="nonzero"></path>
            <path d="M21,27 L21,28 L34,28 L34,27 L21,27 Z M20,26 L35,26 L35,29 L20,29 L20,26 Z" id="Rectangle-5-Copy-4" fill="#17A1CA" fill-rule="nonzero"></path>
            <path d="M34.1461115,17.9903846 L21.7153782,31.498202" id="Line-2" stroke="#17A1CA" stroke-linecap="square"></path>
        </g>
        <polygon id="Path" fill="#BCBCBC" points="9 43 9 48 14 48 14 43"></polygon>
        <polygon id="Path" fill="#BCBCBC" points="44 10 44 15 49 15 49 10"></polygon>
        <polygon id="Path" fill="#BCBCBC" points="44 43 44 48 49 48 49 43"></polygon>
        <path d="M9,43 L9,48 L14,48 L14,43 L9,43 Z M9,42 L14,42 C14.5522847,42 15,42.4477153 15,43 L15,48 C15,48.5522847 14.5522847,49 14,49 L9,49 C8.44771525,49 8,48.5522847 8,48 L8,43 C8,42.4477153 8.44771525,42 9,42 Z M44,10 L44,15 L49,15 L49,10 L44,10 Z M44,9 L49,9 C49.5522847,9 50,9.44771525 50,10 L50,15 C50,15.5522847 49.5522847,16 49,16 L44,16 C43.4477153,16 43,15.5522847 43,15 L43,10 C43,9.44771525 43.4477153,9 44,9 Z M44,43 L44,48 L49,48 L49,43 L44,43 Z M44,42 L49,42 C49.5522847,42 50,42.4477153 50,43 L50,48 C50,48.5522847 49.5522847,49 49,49 L44,49 C43.4477153,49 43,48.5522847 43,48 L43,43 C43,42.4477153 43.4477153,42 44,42 Z" id="Combined-Shape" fill="#666666" fill-rule="nonzero"></path>
        <rect x="0" y="0" width="50" height="50"></rect>
    </g>    
</svg>