<?xml version="1.0" encoding="UTF-8"?>
<svg width="16px" height="16px" viewBox="0 0 16 16" version="1.1" xmlns="http://www.w3.org/2000/svg" xmlns:xlink="http://www.w3.org/1999/xlink">
    <g id="Group-10" stroke="none" stroke-width="1" fill="none" fill-rule="evenodd">
        <path d="M0.5,2 L11.5,2 C11.7761424,2 12,2.22385763 12,2.5 C12,2.77614237 11.7761424,3 11.5,3 L0.5,3 C0.223857625,3 3.38176876e-17,2.77614237 0,2.5 C-3.38176876e-17,2.22385763 0.223857625,2 0.5,2 Z M0.5,7 L10.5,7 C10.7761424,7 11,7.22385763 11,7.5 C11,7.77614237 10.7761424,8 10.5,8 L0.5,8 C0.223857625,8 3.38176876e-17,7.77614237 0,7.5 C-3.38176876e-17,7.22385763 0.223857625,7 0.5,7 Z M0.5,12 L8.5,12 C8.77614237,12 9,12.2238576 9,12.5 C9,12.7761424 8.77614237,13 8.5,13 L0.5,13 C0.223857625,13 3.38176876e-17,12.7761424 0,12.5 C-3.38176876e-17,12.2238576 0.223857625,12 0.5,12 Z" id="Combined-Shape" fill="#9B9B9B"></path>
        <polygon id="Triangle" fill="#9B9B9B" transform="translate(13.000000, 13.000000) scale(1, -1) translate(-13.000000, -13.000000) " points="13 11 16 15 10 15"></polygon>
        <rect id="Rectangle-27" x="0" y="0" width="16" height="16"></rect>
    </g>    
</svg>