<?xml version="1.0" encoding="UTF-8"?>
<svg width="50px" height="50px" viewBox="0 0 50 50" version="1.1" xmlns="http://www.w3.org/2000/svg" xmlns:xlink="http://www.w3.org/1999/xlink">
    <g id="图标8" stroke="none" stroke-width="1" fill="none" fill-rule="evenodd">
        <g id="Group-4" transform="translate(28.000000, 21.000000) scale(-1, 1) translate(-28.000000, -21.000000) translate(9.000000, 4.000000)" fill="#666666" fill-rule="nonzero">
            <path d="M4,1 L4,0 L7,0 L7,1 L4,1 Z M9,1 L9,0 L13,0 L13,1 L9,1 Z M15,1 L15,0 L19,0 L19,1 L15,1 Z M21,1 L21,0 L25,0 L25,1 L21,1 Z M27,1 L27,0 L31,0 L31,1 L27,1 Z M33,1 L33,0 L34,0 L34,1 L33,1 Z" id="Line"></path>
            <polygon id="Line-Copy-3" points="3 34 3 33 7 33 7 34"></polygon>
            <path d="M0,4 L1,4 L1,8 L0,8 L0,4 Z M0,10 L1,10 L1,14 L0,14 L0,10 Z M0,16 L1,16 L1,20 L0,20 L0,16 Z M0,22 L1,22 L1,26 L0,26 L0,22 Z M0,28 L1,28 L1,30 L0,30 L0,28 Z" id="Line-Copy"></path>
            <path d="M37,4 L38,4 L38,6 L37,6 L37,4 Z M37,8 L38,8 L38,9.10536273 L37,9.10536273 L37,8 Z" id="Line-Copy-2"></path>
        </g>
        <g id="Group-2" transform="translate(0.000000, 17.000000)">
            <path d="M2,1 C1.44771525,1 1,1.44771525 1,2 L1,30 C1,30.5522847 1.44771525,31 2,31 L34,31 C34.5522847,31 35,30.5522847 35,30 L35,2 C35,1.44771525 34.5522847,1 34,1 L2,1 Z M2,0 L34,0 C35.1045695,-2.02906125e-16 36,0.8954305 36,2 L36,30 C36,31.1045695 35.1045695,32 34,32 L2,32 C0.8954305,32 1.3527075e-16,31.1045695 0,30 L0,2 C-1.3527075e-16,0.8954305 0.8954305,2.02906125e-16 2,0 Z" id="Rectangle-3" fill="#666666" fill-rule="nonzero"></path>
            <rect id="Rectangle-6" fill="#666666" x="11" y="1" width="1" height="9"></rect>
            <rect id="Rectangle-6-Copy-6" fill="#666666" x="24" y="1" width="1" height="9"></rect>
            <rect id="Rectangle-6-Copy-4" fill="#666666" x="11" y="22" width="1" height="9"></rect>
            <rect id="Rectangle-6-Copy-5" fill="#666666" x="24" y="22" width="1" height="9"></rect>
            <rect id="Rectangle-5-Copy-3" fill="#666666" x="1" y="11" width="9" height="1"></rect>
            <rect id="Rectangle-5-Copy-7" fill="#666666" x="1" y="20" width="9" height="1"></rect>
            <rect id="Rectangle-5-Copy-5" fill="#666666" x="26" y="11" width="9" height="1"></rect>
            <rect id="Rectangle-5-Copy-6" fill="#666666" x="26" y="20" width="9" height="1"></rect>
            <polygon id="Path" fill="#E7F5F9" points="12 12 12 20 24 20 24 12"></polygon>
            <path d="M12,12 L12,20 L24,20 L24,12 L12,12 Z M11,11 L25,11 L25,21 L11,21 L11,11 Z" id="Rectangle-2" fill="#17A1CA" fill-rule="nonzero"></path>
        </g>
        <polygon id="Path" fill="#BCBCBC" points="7 2 7 7 12 7 12 2"></polygon>
        <polygon id="Path" fill="#BCBCBC" points="44 35 44 40 49 40 49 35"></polygon>
        <polygon id="Path" fill="#BCBCBC" points="44 2 44 7 49 7 49 2"></polygon>
        <path d="M7,2 L7,7 L12,7 L12,2 L7,2 Z M7,1 L12,1 C12.5522847,1 13,1.44771525 13,2 L13,7 C13,7.55228475 12.5522847,8 12,8 L7,8 C6.44771525,8 6,7.55228475 6,7 L6,2 C6,1.44771525 6.44771525,1 7,1 Z M44,35 L44,40 L49,40 L49,35 L44,35 Z M44,34 L49,34 C49.5522847,34 50,34.4477153 50,35 L50,40 C50,40.5522847 49.5522847,41 49,41 L44,41 C43.4477153,41 43,40.5522847 43,40 L43,35 C43,34.4477153 43.4477153,34 44,34 Z M44,2 L44,7 L49,7 L49,2 L44,2 Z M44,1 L49,1 C49.5522847,1 50,1.44771525 50,2 L50,7 C50,7.55228475 49.5522847,8 49,8 L44,8 C43.4477153,8 43,7.55228475 43,7 L43,2 C43,1.44771525 43.4477153,1 44,1 Z" id="Combined-Shape" fill="#666666" fill-rule="nonzero"></path>
        <rect x="0" y="0" width="50" height="50"></rect>
    </g>    
</svg>