<?xml version="1.0" encoding="UTF-8"?>
<svg width="16px" height="16px" viewBox="0 0 16 16" version="1.1" xmlns="http://www.w3.org/2000/svg" xmlns:xlink="http://www.w3.org/1999/xlink">
    <g id="Group-10" stroke="none" stroke-width="1" fill="none" fill-rule="evenodd">
        <path d="M9,12.4579646 L9,6.5420354 C9,6.24778761 9.21428571,6 9.5,6 C9.77142857,6 10,6.24778761 10,6.5420354 L10,12.4424779 C10,12.7522124 9.77142857,13 9.5,13 C9.22857143,13 9,12.7676991 9,12.4579646 Z M6.00112783,12.4579646 L6.00112783,6.5420354 C6.00112783,6.24778761 6.21493019,6 6.5,6 C6.77081632,6 6.99887217,6.24778761 6.99887217,6.5420354 L6.99887217,12.4424779 C6.99887217,12.7522124 6.77081632,13 6.5,13 C6.22918368,13 6.00112783,12.7676991 6.00112783,12.4579646 Z M13,3 L13,2 C13,0.5 12.5,0 11,0 L5.00112783,0 C3.5,0 3,0.5 3,2 L3,3 L0.5,3 C0.1875,3 0,3.17078189 0,3.5 C0,3.8127572 0.171052632,4 0.5,4 L15.5,4 C15.8125,4 16,3.82921811 16,3.5 C15.9835526,3.1872428 15.8125,3 15.5,3 L13,3 Z M5,1 L11,1 C11.5,1 12,1.5 12,2 L12,3 L4,3 L4,2 C4,1.5 4.5,1 5,1 Z M3.49376146,16 C2.67506528,16 2,15.2912038 2,14.4315998 L2,5.52782698 C2,5.24129233 2.22980946,5 2.50270818,5 C2.77560691,5 3.00541637,5.24129233 3.00541637,5.52782698 L3.00541637,14.4315998 C3.00541637,14.7181345 3.23522583,14.9594268 3.50812455,14.9594268 L12.4918754,14.9594268 C12.7647742,14.9594268 12.9945836,14.7181345 12.9945836,14.4315998 L12.9945836,5.54290775 C12.9945836,5.2563731 13.2243931,5.01508077 13.4972918,5.01508077 C13.7701905,5.01508077 14,5.2563731 14,5.54290775 L14,14.4165191 C13.9856369,15.2912038 13.3105716,16 12.4918754,16 L3.49376146,16 Z" id="Shape" fill="#9B9B9B" fill-rule="nonzero"></path>
        <rect id="Rectangle-26" x="0" y="0" width="16" height="16"></rect>
    </g>    
</svg>