<?xml version="1.0" encoding="UTF-8"?>
<svg width="50px" height="50px" viewBox="0 0 50 50" version="1.1" xmlns="http://www.w3.org/2000/svg" xmlns:xlink="http://www.w3.org/1999/xlink">
    <g id="图标1" stroke="none" stroke-width="1" fill="none" fill-rule="evenodd">
        <g id="Group-4" transform="translate(3.000000, 4.000000)" fill="#666666" fill-rule="nonzero">
            <path d="M4,1 L4,0 L7,0 L7,1 L4,1 Z M9,1 L9,0 L13,0 L13,1 L9,1 Z M15,1 L15,0 L19,0 L19,1 L15,1 Z M21,1 L21,0 L25,0 L25,1 L21,1 Z M27,1 L27,0 L31,0 L31,1 L27,1 Z M33,1 L33,0 L34,0 L34,1 L33,1 Z" id="Line"></path>
            <polygon id="Line-Copy-3" points="3 33.75 3 32.75 7 32.75 7 33.75"></polygon>
            <path d="M0,4 L1,4 L1,7 L0,7 L0,4 Z M0,9 L1,9 L1,13 L0,13 L0,9 Z M0,15 L1,15 L1,19 L0,19 L0,15 Z M0,21 L1,21 L1,25 L0,25 L0,21 Z M0,27 L1,27 L1,30 L0,30 L0,27 Z" id="Line-Copy"></path>
            <path d="M37,4 L38,4 L38,8 L37,8 L37,4 Z M37,10 L38,10 L38,11.1053627 L37,11.1053627 L37,10 Z" id="Line-Copy-2"></path>
        </g>
        <g id="Group-2" transform="translate(14.000000, 17.000000)">
            <path d="M1.00177951,10.0017795 L1.00177951,29.99822 C1.00177951,30.550505 1.44949498,30.9982205 2.00178,30.9982205 L7.99822049,30.9982205 L7.99822049,10.0017795 L1.00177951,10.0017795 Z" id="Path" fill="#E7F5F9" fill-rule="nonzero"></path>
            <path d="M1.00177951,10.0017795 L1.00177951,29.99822 C1.00177951,30.550505 1.44949498,30.9982205 2.00178,30.9982205 L7.99822049,30.9982205 L7.99822049,10.0017795 L1.00177951,10.0017795 Z M0,9 L9,9 L9,32 L2.00178,32 C0.896227433,32 1.35391141e-16,31.1037726 0,29.99822 L0,9 Z" id="Rectangle-32" fill="#17A1CA" fill-rule="nonzero"></path>
            <path d="M11.0017795,10.0017795 L11.0017795,30.9982205 L33.99822,30.9982205 C34.550505,30.9982205 34.9982205,30.550505 34.9982205,29.99822 L34.9982205,10.0017795 L11.0017795,10.0017795 Z M10,9 L36,9 L36,29.99822 C36,31.1037726 35.1037726,32 33.99822,32 L10,32 L10,9 Z" id="Rectangle-32" fill="#666666" fill-rule="nonzero"></path>
            <path d="M0.500889756,7.49911024 L35.4991102,7.49911024 L35.4991102,2.00178 C35.4991102,1.17286121 34.8271388,0.500889756 33.99822,0.500889756 L2.00178,0.500889756 C1.17286121,0.500889756 0.500889756,1.17286121 0.500889756,2.00178 L0.500889756,7.49911024 Z" id="Rectangle-32" stroke="#17A1CA" stroke-width="1.00177951"></path>
            <rect id="Rectangle-6-Copy" fill="#666666" x="22" y="9" width="1" height="22"></rect>
            <rect id="Rectangle-5" fill="#666666" x="10" y="17" width="25" height="1"></rect>
            <rect id="Rectangle-5-Copy" fill="#666666" x="10" y="24" width="25" height="1"></rect>
        </g>
        <polygon id="Path" fill="#BCBCBC" points="1 2 1 7 6 7 6 2"></polygon>
        <polygon id="Path" fill="#BCBCBC" points="1 35 1 40 6 40 6 35"></polygon>
        <polygon id="Path" fill="#BCBCBC" points="38 2 38 7 43 7 43 2"></polygon>
        <path d="M1,2 L1,7 L6,7 L6,2 L1,2 Z M1,1 L6,1 C6.55228475,1 7,1.44771525 7,2 L7,7 C7,7.55228475 6.55228475,8 6,8 L1,8 C0.44771525,8 6.76353751e-17,7.55228475 0,7 L0,2 C-6.76353751e-17,1.44771525 0.44771525,1 1,1 Z M1,35 L1,40 L6,40 L6,35 L1,35 Z M1,34 L6,34 C6.55228475,34 7,34.4477153 7,35 L7,40 C7,40.5522847 6.55228475,41 6,41 L1,41 C0.44771525,41 6.76353751e-17,40.5522847 0,40 L0,35 C-6.76353751e-17,34.4477153 0.44771525,34 1,34 Z M38,2 L38,7 L43,7 L43,2 L38,2 Z M38,1 L43,1 C43.5522847,1 44,1.44771525 44,2 L44,7 C44,7.55228475 43.5522847,8 43,8 L38,8 C37.4477153,8 37,7.55228475 37,7 L37,2 C37,1.44771525 37.4477153,1 38,1 Z" id="Combined-Shape" fill="#666666" fill-rule="nonzero"></path>
        <rect x="0" y="0" width="50" height="50"></rect>
    </g>    
</svg>