<?xml version="1.0" encoding="UTF-8"?>
<svg width="50px" height="50px" viewBox="0 0 50 50" version="1.1" xmlns="http://www.w3.org/2000/svg" xmlns:xlink="http://www.w3.org/1999/xlink">
    <g id="图标5" stroke="none" stroke-width="1" fill="none" fill-rule="evenodd">
        <path d="M46.5,15 C46.7761424,15 47,15.2238576 47,15.5 L47,42 L46,42 L46,15.5 C46,15.2238576 46.2238576,15 46.5,15 Z M46,8 L47,8 L47,11.5 C47,11.7761424 46.7761424,12 46.5,12 C46.2238576,12 46,11.7761424 46,11.5 L46,8 Z M7,4 L43,4 L43,5 L7,5 L7,4 Z M7,45 L43,45 L43,46 L7,46 L7,45 Z M3,8 L4,8 L4,42 L3,42 L3,8 Z" id="Combined-Shape" fill="#666666"></path>
        <polygon id="Path" fill="#E7F5F9" points="24 29 24 38 39 38 39 29"></polygon>
        <rect id="Rectangle-2-Copy-2" fill="#E0E0E0" x="11" y="12" width="28" height="6"></rect>
        <rect id="Rectangle-2-Copy" fill="#E0E0E0" x="11" y="19" width="7" height="19"></rect>
        <path d="M18,38 L18,24 L39,24 L39,13 C39,12.4477153 38.5522847,12 38,12 L12,12 C11.4477153,12 11,12.4477153 11,13 L11,37 C11,37.5522847 11.4477153,38 12,38 L18,38 Z M12,11 L38,11 C39.1045695,11 40,11.8954305 40,13 L40,25 L19,25 L19,39 L12,39 C10.8954305,39 10,38.1045695 10,37 L10,13 C10,11.8954305 10.8954305,11 12,11 Z" id="Rectangle-16" fill="#666666" fill-rule="nonzero"></path>
        <rect id="Rectangle-21" fill="#666666" x="18" y="19" width="1" height="5"></rect>
        <rect id="Rectangle-21-Copy" fill="#666666" x="29" y="19" width="1" height="5"></rect>
        <path d="M24,29 L24,38 L39,38 L39,29 L24,29 Z M24,28 L39,28 C39.5522847,28 40,28.4477153 40,29 L40,38 C40,38.5522847 39.5522847,39 39,39 L24,39 C23.4477153,39 23,38.5522847 23,38 L23,29 C23,28.4477153 23.4477153,28 24,28 Z" id="Rectangle-10" fill="#17A1CA" fill-rule="nonzero"></path>
        <rect id="Rectangle-17" fill="#17A1CA" x="24" y="33" width="15" height="1"></rect>
        <rect id="Rectangle-18" fill="#17A1CA" x="34" y="29" width="1" height="9"></rect>
        <rect id="Rectangle-18-Copy" fill="#17A1CA" x="28" y="29" width="1" height="9"></rect>
        <rect id="Rectangle-5-Copy-3" fill="#666666" x="11" y="18" width="28" height="1"></rect>
        <polygon id="Path" fill="#BCBCBC" points="1 2 1 7 6 7 6 2"></polygon>
        <polygon id="Path" fill="#BCBCBC" points="1 43 1 48 6 48 6 43"></polygon>
        <polygon id="Path" fill="#BCBCBC" points="44 2 44 7 49 7 49 2"></polygon>
        <polygon id="Path" fill="#BCBCBC" points="44 43 44 48 49 48 49 43"></polygon>
        <path d="M1,2 L1,7 L6,7 L6,2 L1,2 Z M1,1 L6,1 C6.55228475,1 7,1.44771525 7,2 L7,7 C7,7.55228475 6.55228475,8 6,8 L1,8 C0.44771525,8 6.76353751e-17,7.55228475 0,7 L0,2 C-6.76353751e-17,1.44771525 0.44771525,1 1,1 Z M1,43 L1,48 L6,48 L6,43 L1,43 Z M1,42 L6,42 C6.55228475,42 7,42.4477153 7,43 L7,48 C7,48.5522847 6.55228475,49 6,49 L1,49 C0.44771525,49 6.76353751e-17,48.5522847 0,48 L0,43 C-6.76353751e-17,42.4477153 0.44771525,42 1,42 Z M44,2 L44,7 L49,7 L49,2 L44,2 Z M44,1 L49,1 C49.5522847,1 50,1.44771525 50,2 L50,7 C50,7.55228475 49.5522847,8 49,8 L44,8 C43.4477153,8 43,7.55228475 43,7 L43,2 C43,1.44771525 43.4477153,1 44,1 Z M44,43 L44,48 L49,48 L49,43 L44,43 Z M44,42 L49,42 C49.5522847,42 50,42.4477153 50,43 L50,48 C50,48.5522847 49.5522847,49 49,49 L44,49 C43.4477153,49 43,48.5522847 43,48 L43,43 C43,42.4477153 43.4477153,42 44,42 Z" id="Combined-Shape" fill="#666666" fill-rule="nonzero"></path>
        <rect x="0" y="0" width="50" height="50"></rect>
    </g>    
</svg>