<?xml version="1.0" encoding="UTF-8"?>
<svg width="16px" height="16px" viewBox="0 0 16 16" version="1.1" xmlns="http://www.w3.org/2000/svg" xmlns:xlink="http://www.w3.org/1999/xlink">
    <g id="Group-10" stroke="none" stroke-width="1" fill="none" fill-rule="evenodd">
        <path d="M1.16666667,9 L5.83333333,9 C6.47766554,9 7,9.52233446 7,10.1666667 L7,14.8333333 C7,15.4776655 6.47766554,16 5.83333333,16 L1.16666667,16 C0.522334459,16 7.89079376e-17,15.4776655 0,14.8333333 L0,10.1666667 C-7.89079376e-17,9.52233446 0.522334459,9 1.16666667,9 Z M6,14.1873167 L6,10.8126617 C6,10.1518901 5.84808242,10 5.18688196,10 L1.81311804,10 C1.1519392,10 1,10.1518901 1,10.8126617 L1,14.1873167 C1,14.848045 1.15191758,15 1.81311804,15 L5.18688196,15 C5.8480608,15 6,14.848045 6,14.1873167 Z M10.1666667,9 L14.8333333,9 C15.4776655,9 16,9.52233446 16,10.1666667 L16,14.8333333 C16,15.4776655 15.4776655,16 14.8333333,16 L10.1666667,16 C9.52233446,16 9,15.4776655 9,14.8333333 L9,10.1666667 C9,9.52233446 9.52233446,9 10.1666667,9 Z M15,14.1873167 L14.9999784,14.1873167 L14.9999784,10.8126617 C14.9999784,10.1518901 14.8481047,10 14.1868639,10 L10.8131145,10 C10.1519385,10 10,10.1518901 10,10.8126617 L10,14.1873167 C10,14.848045 10.1519386,15 10.8131145,15 L14.1868855,15 C14.8481263,15 15,14.848045 15,14.1873167 Z M6,0 L10,0 C10.5522847,-1.01453063e-16 11,0.44771525 11,1 L11,5 C11,5.55228475 10.5522847,6 10,6 L6,6 C5.44771525,6 5,5.55228475 5,5 L5,1 C5,0.44771525 5.44771525,1.01453063e-16 6,0 Z M6,1.65046629 L6.00000002,4.34936069 C6.00000002,4.87828088 6.12155137,4.99982698 6.650927,5 L9.34950557,5 C9.87844864,5 10,4.87850579 10,4.34936069 L10,1.65046629 C10,1.12149419 9.87844863,1 9.34950557,1 L6.65092699,1 C6.12155136,1 6,1.12149421 6,1.65046629 Z" id="Combined-Shape" fill="#9B9B9B" fill-rule="nonzero"></path>
        <path d="M7.5,7 L7.5,6 L8.5,6 L8.5,7 L11,7 C12.1045695,7 13,7.8954305 13,9 L13,10 L12,10 L12,9 C12,8.44771525 11.5522847,8 11,8 L5,8 C4.44771525,8 4,8.44771525 4,9 L4,10 L3,10 L3,9 C3,7.8954305 3.8954305,7 5,7 L7.5,7 Z" id="Combined-Shape" fill="#979797" fill-rule="nonzero"></path>
        <rect id="Rectangle-34" x="0" y="0" width="16" height="16"></rect>
    </g>    
</svg>