<?xml version="1.0" encoding="UTF-8"?>
<svg width="16px" height="16px" viewBox="0 0 16 16" version="1.1" xmlns="http://www.w3.org/2000/svg" xmlns:xlink="http://www.w3.org/1999/xlink">
    <g id="Group-10" stroke="none" stroke-width="1" fill="none" fill-rule="evenodd">
        <path d="M15.4574541,3 L8.54545217,3 C8.24340071,3 8,2.77688173 8,2.5 C8,2.22311829 8.24340069,2 8.54545217,2 L15.4545216,2 C15.7565731,2 15.9999738,2.22311827 15.9999738,2.5 C16.0029063,2.77688173 15.7595056,3 15.4574541,3 Z M15.457478,6 L8.54545455,6 C8.24340177,6 8,5.77688173 8,5.5 C8,5.22311827 8.24340176,5 8.54545455,5 L15.4545454,5 C15.7565982,5 16,5.22311827 16,5.5 C16,5.77688173 15.7595308,6 15.457478,6 Z M15.457478,12 L8.54545455,12 C8.24340177,12 8,11.7768817 8,11.5 C8,11.2231183 8.24340176,11 8.54545455,11 L15.4545454,11 C15.7565982,11 16,11.2231183 16,11.5 C16,11.7768817 15.7595308,12 15.457478,12 Z M15.457478,15 L8.54545455,15 C8.24340177,15 8,14.7768817 8,14.5 C8,14.2231183 8.24340176,14 8.54545455,14 L15.4545454,14 C15.7565982,14 16,14.2231183 16,14.5 C16,14.7768817 15.7595308,15 15.457478,15 Z M5.25,7 L1.75,7 C0.784050183,7 0,6.21594981 0,5.25 L1.82322293e-08,1.75 C1.82322293e-08,0.784050185 0.784050201,0 1.75000002,0 L5.25,0 C6.21594982,0 7,0.784050185 7,1.75 L7,5.25 C6.99999998,6.21594983 6.21594982,7 5.25,7 Z M1.62500001,1.00000002 C1.28225808,1.00000002 1,1.28225808 1,1.62500002 L1,5.375 C1,5.71774192 1.28225806,6 1.62500001,6 L5.37499999,6 C5.71774192,6 6,5.71774194 6,5.375 L6,1.625 C6,1.28225808 5.71774194,1 5.37499999,1 L1.62500001,1.00000002 Z M5.25,16 L1.75,16 C0.784050183,16 0,15.2163009 0,14.2507837 L1.82322293e-08,10.7492163 C1.82322293e-08,9.78369907 0.784050201,9 1.75000002,9 L5.25,9 C6.21594982,9 7,9.78369907 7,10.7492163 L7,14.2476489 C6.99999998,15.2131662 6.21594982,16 5.25,16 Z M1.62500001,10 C1.28225808,10 1,10.2788979 1,10.625 L1,14.375 C1,14.7211021 1.28225806,15 1.62500001,15 L5.37499999,15 C5.71774192,15 6,14.7211022 6,14.375 L6,10.625 C6,10.2788979 5.71774194,10 5.37499999,10 L1.62500001,10 Z" fill="#9E9E9E" fill-rule="nonzero"></path>
        <rect x="0" y="0" width="16" height="16"></rect>
    </g>    
</svg>