<?xml version="1.0" encoding="UTF-8"?>
<svg width="16px" height="16px" viewBox="0 0 16 16" version="1.1" xmlns="http://www.w3.org/2000/svg" xmlns:xlink="http://www.w3.org/1999/xlink">
    <g id="Group-10" stroke="none" stroke-width="1" fill="none" fill-rule="evenodd">
        <g id="Group-9" fill="#9E9E9E" fill-rule="nonzero">
            <path d="M7,14 C3.13400675,14 0,10.8659932 0,7 C-5.65204449e-16,3.13400675 3.13400675,5.74086233e-14 7,5.68434189e-14 C10.8659932,5.571301e-14 14,3.13400675 14,7 C14,8.85651543 13.2625021,10.6369928 11.9497475,11.9497475 C10.6369928,13.2625021 8.85651543,14 7,14 Z M7,1 C3.6862915,1 1,3.6862915 1,7 C1,10.3137085 3.6862915,13 7,13 C10.3137085,13 13,10.3137085 13,7 C13,3.6862915 10.3137085,1 7,1 Z" id="Shape"></path>
            <path d="M14.3992198,14.9817945 C14.2443697,14.9826898 14.0955345,14.921898 13.9855917,14.8128479 L11.5154746,12.3369051 C11.3175293,12.1057625 11.3308379,11.7612081 11.546023,11.546023 C11.7612081,11.3308379 12.1057625,11.3175293 12.3369051,11.5154746 L14.8128479,13.9855917 C14.9231366,14.0949798 14.9851725,14.2438835 14.9851725,14.3992198 C14.9851725,14.5545561 14.9231366,14.7034598 14.8128479,14.8128479 C14.702905,14.921898 14.5540699,14.9826898 14.3992198,14.9817945 Z" id="Shape"></path>
        </g>
        <rect id="搜索" x="0" y="0" width="16" height="16"></rect>
    </g>    
</svg>