<?xml version="1.0" encoding="UTF-8"?>
<svg width="50px" height="50px" viewBox="0 0 50 50" version="1.1" xmlns="http://www.w3.org/2000/svg" xmlns:xlink="http://www.w3.org/1999/xlink">
    <g id="图标11" stroke="none" stroke-width="1" fill="none" fill-rule="evenodd">
        <g id="Group-4" transform="translate(3.000000, 4.000000)" fill="#666666" fill-rule="nonzero">
            <path d="M4,1 L4,0 L7,0 L7,1 L4,1 Z M9,1 L9,0 L13,0 L13,1 L9,1 Z M15,1 L15,0 L19,0 L19,1 L15,1 Z M21,1 L21,0 L25,0 L25,1 L21,1 Z M27,1 L27,0 L31,0 L31,1 L27,1 Z M33,1 L33,0 L34,0 L34,1 L33,1 Z" id="Line"></path>
            <polygon id="Line-Copy-3" points="4 34 4 33 8 33 8 34"></polygon>
            <path d="M0,4 L1,4 L1,8 L0,8 L0,4 Z M0,10 L1,10 L1,14 L0,14 L0,10 Z M0,16 L1,16 L1,20 L0,20 L0,16 Z M0,22 L1,22 L1,26 L0,26 L0,22 Z M0,28 L1,28 L1,30 L0,30 L0,28 Z" id="Line-Copy"></path>
            <path d="M37,4 L38,4 L38,8 L37,8 L37,4 Z M37,10 L38,10 L38,11.1053627 L37,11.1053627 L37,10 Z" id="Line-Copy-2"></path>
        </g>
        <path d="M14.9529271,42 L14.9529271,47 C14.9529271,47.5522847 15.4006424,48 15.9529271,48 L48,48 C48.5522847,48 49,47.5522847 49,47 L49,42 L35,42 L35,44 C35,45.1045695 34.1045695,46 33,46 L21,46 C19.8954305,46 19,45.1045695 19,44 L19,42 L14.9529271,42 Z" id="Path" fill="#E7F5F9"></path>
        <g id="Group-2" transform="translate(13.000000, 17.000000)">
            <path d="M1.95292713,25 L1.95292713,30 C1.95292713,30.5522847 2.40064238,31 2.95292713,31 L35,31 C35.5522847,31 36,30.5522847 36,30 L36,25 L22,25 L22,27 C22,28.1045695 21.1045695,29 20,29 L8,29 C6.8954305,29 6,28.1045695 6,27 L6,25 L1.95292713,25 Z M0.952927127,24 L7,24 L7,27 C7,27.5522847 7.44771525,28 8,28 L20,28 C20.5522847,28 21,27.5522847 21,27 L21,24 L37,24 L37,30 C37,31.1045695 36.1045695,32 35,32 L2.95292713,32 C1.84835763,32 0.952927127,31.1045695 0.952927127,30 L0.952927127,24 Z" id="Rectangle-31" fill="#17A1CA" fill-rule="nonzero"></path>
            <rect id="Rectangle-2-Copy" fill="#E0E0E0" x="2" y="1" width="34" height="7"></rect>
            <path d="M2,21 L36,21 L36,2 C36,1.44771525 35.5522847,1 35,1 L3,1 C2.44771525,1 2,1.44771525 2,2 L2,21 Z M3,0 L35,0 C36.1045695,-2.02906125e-16 37,0.8954305 37,2 L37,22 L1,22 L1,2 C1,0.8954305 1.8954305,2.02906125e-16 3,0 Z" id="Rectangle-30" fill="#666666" fill-rule="nonzero"></path>
            <rect id="Rectangle-6" fill="#666666" x="12" y="8" width="1" height="13"></rect>
            <rect id="Rectangle-6-Copy" fill="#666666" x="25" y="8" width="1" height="13"></rect>
            <rect id="Rectangle-5" fill="#666666" x="2" y="14" width="34" height="1"></rect>
            <rect id="Rectangle-5-Copy-3" fill="#666666" x="2" y="7" width="34" height="1"></rect>
            <rect id="Rectangle-5-Copy" fill="#17A1CA" x="9" y="24" width="10" height="1"></rect>
        </g>
        <polygon id="Path" fill="#BCBCBC" points="1 2 1 7 6 7 6 2"></polygon>
        <polygon id="Path" fill="#BCBCBC" points="1 35 1 40 6 40 6 35"></polygon>
        <polygon id="Path" fill="#BCBCBC" points="38 2 38 7 43 7 43 2"></polygon>
        <path d="M1,2 L1,7 L6,7 L6,2 L1,2 Z M1,1 L6,1 C6.55228475,1 7,1.44771525 7,2 L7,7 C7,7.55228475 6.55228475,8 6,8 L1,8 C0.44771525,8 6.76353751e-17,7.55228475 0,7 L0,2 C-6.76353751e-17,1.44771525 0.44771525,1 1,1 Z M1,35 L1,40 L6,40 L6,35 L1,35 Z M1,34 L6,34 C6.55228475,34 7,34.4477153 7,35 L7,40 C7,40.5522847 6.55228475,41 6,41 L1,41 C0.44771525,41 6.76353751e-17,40.5522847 0,40 L0,35 C-6.76353751e-17,34.4477153 0.44771525,34 1,34 Z M38,2 L38,7 L43,7 L43,2 L38,2 Z M38,1 L43,1 C43.5522847,1 44,1.44771525 44,2 L44,7 C44,7.55228475 43.5522847,8 43,8 L38,8 C37.4477153,8 37,7.55228475 37,7 L37,2 C37,1.44771525 37.4477153,1 38,1 Z" id="Combined-Shape" fill="#666666" fill-rule="nonzero"></path>
        <rect x="0" y="0" width="50" height="50"></rect>
    </g>    
</svg>